<svg width="295.52203979492185px" height="90.29152526855468px" xmlns="http://www.w3.org/2000/svg" viewBox="102.23898010253907 29.85423736572266 295.52203979492185 90.29152526855468" style="background: rgba(0, 0, 0, 0);" preserveAspectRatio="xMidYMid"><defs><filter id="editing-extrusion" x="-100%" y="-100%" width="300%" height="300%"><feFlood result="color1" flood-color="#444"></feFlood><feConvolveMatrix order="8,8" divisor="1" kernelMatrix="1 0 0 0 0 0 0 0 0 1 0 0 0 0 0 0 0 0 1 0 0 0 0 0 0 0 0 1 0 0 0 0 0 0 0 0 1 0 0 0 0 0 0 0 0 1 0 0 0 0 0 0 0 0 1 0 0 0 0 0 0 0 0 1" in="SourceAlpha" result="extrude"></feConvolveMatrix><feComposite in="color1" in2="extrude" result="comp-extrude" operator="in"></feComposite><feOffset dx="4" dy="4" in="comp-extrude" result="offset-extrude"></feOffset><feMerge><feMergeNode in="offset-extrude"></feMergeNode><feMergeNode in="SourceGraphic"></feMergeNode></feMerge></filter></defs><g filter="url(#editing-extrusion)"><g transform="translate(104.59000852704048, 97.46500015258789)"><path d="M26.11-42.69L26.11-42.69L26.11-42.69Q41.79-42.69 41.79-31.62L41.79-31.62L41.79-31.62Q41.79-25.54 37.89-21.89L37.89-21.89L37.89-21.89Q34.05-18.24 27.33-18.24L27.33-18.24L27.33-18.24Q24.19-18.24 21.76-20.03L21.76-20.03L21.76-20.03Q20.61-20.80 19.84-21.82L19.84-21.82L19.84-21.82Q24.51-21.82 26.98-24.67L26.98-24.67L26.98-24.67Q29.44-27.52 29.44-33.09L29.44-33.09L29.44-33.09Q29.44-38.66 23.94-38.66L23.94-38.66L22.40-38.66L22.40-38.66Q22.02-38.66 21.70-38.59L21.70-38.59L14.34 0L0.45 0L8.32-41.92L8.32-41.92Q15.17-42.56 19.14-42.62L19.14-42.62L19.14-42.62Q23.10-42.69 26.11-42.69ZM68.03-10.82L68.03-10.82L68.03-10.82Q69.63-9.73 69.63-7.33L69.63-7.33L69.63-7.33Q69.63-4.93 68.42-3.39L68.42-3.39L68.42-3.39Q67.20-1.86 65.22-0.83L65.22-0.83L65.22-0.83Q61.12 1.28 56.70 1.28L56.70 1.28L56.70 1.28Q52.29 1.28 49.70 0.32L49.70 0.32L49.70 0.32Q47.10-0.64 45.38-2.43L45.38-2.43L45.38-2.43Q41.98-5.82 41.98-12.03L41.98-12.03L41.98-12.03Q41.98-21.70 47.23-27.58L47.23-27.58L47.23-27.58Q52.86-33.92 62.66-33.92L62.66-33.92L62.66-33.92Q68.74-33.92 71.74-31.36L71.74-31.36L71.74-31.36Q73.98-29.44 73.98-26.30L73.98-26.30L73.98-26.30Q73.98-15.04 54.53-15.04L54.53-15.04L54.53-15.04Q54.27-13.38 54.27-11.97L54.27-11.97L54.27-11.97Q54.27-9.02 55.58-7.90L55.58-7.90L55.58-7.90Q56.90-6.78 59.33-6.78L59.33-6.78L59.33-6.78Q61.76-6.78 64.35-7.90L64.35-7.90L64.35-7.90Q66.94-9.02 68.03-10.82ZM54.98-17.79L54.98-17.79L54.98-17.79Q59.52-17.79 62.14-20.61L62.14-20.61L62.14-20.61Q64.77-23.30 64.77-27.58L64.77-27.58L64.77-27.58Q64.77-29.06 64.22-29.86L64.22-29.86L64.22-29.86Q63.68-30.66 62.59-30.66L62.59-30.66L62.59-30.66Q61.50-30.66 60.58-30.24L60.58-30.24L60.58-30.24Q59.65-29.82 58.69-28.42L58.69-28.42L58.69-28.42Q56.32-25.22 54.98-17.79ZM77.18-6.40L77.18-6.40L77.18-6.40Q77.18-8.13 78.08-12.48L78.08-12.48L81.47-29.76L77.70-29.76L77.95-31.68L77.95-31.68Q85.63-33.98 93.06-39.62L93.06-39.62L96.13-39.62L94.59-32.64L99.58-32.64L99.01-29.76L94.08-29.76L90.82-12.48L90.82-12.48Q89.98-8.51 89.98-7.17L89.98-7.17L89.98-7.17Q89.98-4.10 92.67-3.46L92.67-3.46L92.67-3.46Q92.03-1.28 89.73 0L89.73 0L89.73 0Q87.42 1.28 84.16 1.28L84.16 1.28L84.16 1.28Q80.90 1.28 79.04-0.77L79.04-0.77L79.04-0.77Q77.18-2.82 77.18-6.40ZM118.40-22.46L118.40-22.46L118.40-22.46Q119.30-24.83 119.30-26.88L119.30-26.88L119.30-26.88Q119.30-30.66 116.22-30.66L116.22-30.66L116.22-30.66Q114.62-30.66 113.31-29.22L113.31-29.22L113.31-29.22Q112-27.78 112-25.98L112-25.98L112-25.98Q112-24.70 113.02-23.68L113.02-23.68L113.02-23.68Q114.50-22.27 118.27-19.97L118.27-19.97L118.27-19.97Q122.05-17.66 123.49-15.78L123.49-15.78L123.49-15.78Q124.93-13.89 124.93-11.30L124.93-11.30L124.93-11.30Q124.93-8.70 123.68-6.34L123.68-6.34L123.68-6.34Q122.43-3.97 120.19-2.30L120.19-2.30L120.19-2.30Q115.39 1.28 107.71 1.28L107.71 1.28L107.71 1.28Q103.55 1.28 100.35-0.90L100.35-0.90L100.35-0.90Q97.15-3.01 97.15-5.50L97.15-5.50L97.15-5.50Q97.15-8 98.98-9.47L98.98-9.47L98.98-9.47Q100.80-10.94 103.49-10.94L103.49-10.94L103.49-10.94Q106.18-10.94 107.84-9.92L107.84-9.92L107.84-9.92Q107.01-7.81 107.01-6.40L107.01-6.40L107.01-6.40Q107.01-2.18 110.59-2.18L110.59-2.18L110.59-2.18Q112.13-2.18 113.15-3.14L113.15-3.14L113.15-3.14Q114.18-4.10 114.18-5.76L114.18-5.76L114.18-5.76Q114.18-9.02 108.67-12.48L108.67-12.48L108.67-12.48Q104.19-15.42 103.17-16.58L103.17-16.58L103.17-16.58Q101.44-18.62 101.44-21.18L101.44-21.18L101.44-21.18Q101.44-23.74 102.66-26.18L102.66-26.18L102.66-26.18Q103.87-28.61 106.11-30.34L106.11-30.34L106.11-30.34Q110.78-33.92 118.91-33.92L118.91-33.92L118.91-33.92Q123.07-33.92 125.54-32.26L125.54-32.26L125.54-32.26Q128-30.59 128-27.78L128-27.78L128-27.78Q128-24.96 126.30-23.36L126.30-23.36L126.30-23.36Q124.61-21.76 121.54-21.76L121.54-21.76L121.54-21.76Q119.42-21.76 118.40-22.46ZM135.49-31.17L135.49-31.17L135.49-31.17Q133.31-32.83 133.31-36.38L133.31-36.38L133.31-36.38Q133.31-39.94 135.65-41.79L135.65-41.79L135.65-41.79Q137.98-43.65 142.02-43.65L142.02-43.65L142.02-43.65Q144.58-43.65 150.66-42.75L150.66-42.75L155.01-42.11L155.01-42.11Q157.18-41.86 159.46-41.86L159.46-41.86L159.46-41.86Q161.73-41.86 163.26-42.82L163.26-42.82L163.26-42.82Q165.57-40.77 165.57-37.82L165.57-37.82L165.57-37.82Q165.57-34.88 162.94-32.77L162.94-32.77L162.94-32.77Q160.26-30.53 156.80-30.53L156.80-30.53L156.80-30.53Q155.14-30.53 152.45-30.98L152.45-30.98L152.45-30.98Q149.31-21.12 149.31-14.27L149.31-14.27L149.31-14.27Q149.31-7.42 152.77-3.84L152.77-3.84L152.77-3.84Q151.17-0.96 148.80 0.16L148.80 0.16L148.80 0.16Q146.43 1.28 142.88 1.28L142.88 1.28L142.88 1.28Q139.33 1.28 137.12-0.67L137.12-0.67L137.12-0.67Q134.91-2.62 134.91-6.66L134.91-6.66L134.91-6.66Q134.91-11.33 137.47-19.01L137.47-19.01L137.47-19.01Q140.03-26.62 143.87-32.45L143.87-32.45L143.87-32.45Q142.02-32.64 140.10-32.64L140.10-32.64L140.10-32.64Q136.13-32.64 135.49-31.17ZM174.53 1.28L174.53 1.28L174.53 1.28Q160.45 1.28 160.45-11.97L160.45-11.97L160.45-11.97Q160.45-21.38 165.63-27.46L165.63-27.46L165.63-27.46Q171.14-33.92 180.67-33.92L180.67-33.92L180.67-33.92Q187.58-33.92 191.10-30.72L191.10-30.72L191.10-30.72Q194.62-27.52 194.62-20.80L194.62-20.80L194.62-20.80Q194.62-10.56 189.12-4.61L189.12-4.61L189.12-4.61Q183.74 1.28 174.53 1.28ZM176.19-26.56L176.19-26.56L176.19-26.56Q175.42-24.83 174.82-22.24L174.82-22.24L174.82-22.24Q174.21-19.65 173.44-15.55L173.44-15.55L173.44-15.55Q172.67-11.46 172.67-6.40L172.67-6.40L172.67-6.40Q172.67-4.74 173.22-3.65L173.22-3.65L173.22-3.65Q173.76-2.56 175.23-2.56L175.23-2.56L175.23-2.56Q176.70-2.56 177.63-3.26L177.63-3.26L177.63-3.26Q178.56-3.97 179.26-5.63L179.26-5.63L179.26-5.63Q180.54-8.58 181.57-14.05L181.57-14.05L181.57-14.05Q182.59-19.52 182.69-21.89L182.69-21.89L182.69-21.89Q182.78-24.26 182.78-26.02L182.78-26.02L182.78-26.02Q182.78-27.78 182.27-28.93L182.27-28.93L182.27-28.93Q181.76-30.08 180.32-30.08L180.32-30.08L180.32-30.08Q178.88-30.08 177.92-29.18L177.92-29.18L177.92-29.18Q176.96-28.29 176.19-26.56ZM246.14-10.69L246.14-10.69Q241.92-4.86 237.86-1.79L237.86-1.79L237.86-1.79Q233.79 1.28 229.60 1.28L229.60 1.28L229.60 1.28Q225.41 1.28 223.94 0.45L223.94 0.45L223.94-13.63L223.94-13.63Q220.29-3.90 213.76-0.13L213.76-0.13L213.76-0.13Q211.39 1.28 209.15 1.28L209.15 1.28L209.15 1.28Q204.86 1.28 203.01 0.45L203.01 0.45L203.01 0.45Q202.56-14.21 202.18-18.27L202.18-18.27L202.18-18.27Q201.79-22.34 201.47-24.83L201.47-24.83L201.47-24.83Q200.83-29.82 198.66-31.87L198.66-31.87L198.66-31.87Q201.41-33.92 205.25-33.92L205.25-33.92L205.25-33.92Q212.67-33.92 213.70-24.70L213.70-24.70L213.70-24.70Q213.95-22.53 213.95-20.22L213.95-20.22L213.95-20.22Q213.95-16.77 213.18-4.74L213.18-4.74L213.18-4.74Q214.72-5.44 216.35-7.97L216.35-7.97L216.35-7.97Q217.98-10.50 219.33-13.95L219.33-13.95L219.33-13.95Q222.34-21.95 222.34-28.86L222.34-28.86L222.34-28.86Q222.34-29.95 222.05-31.10L222.05-31.10L222.05-31.10Q221.76-32.26 221.44-32.58L221.44-32.58L221.44-32.58Q223.68-33.92 227.10-33.92L227.10-33.92L227.10-33.92Q230.53-33.92 232.16-31.58L232.16-31.58L232.16-31.58Q233.79-29.25 234.24-24.96L234.24-24.96L234.24-24.96Q234.75-19.52 234.75-16.26L234.75-16.26L234.75-16.26Q234.75-11.71 234.30-4.99L234.30-4.99L234.30-4.99Q237.50-7.30 240.13-14.85L240.13-14.85L240.13-14.85Q242.75-22.40 242.75-27.78L242.75-27.78L242.75-27.78Q242.75-30.14 242.37-31.55L242.37-31.55L242.37-31.55Q244.48-33.92 248.13-33.92L248.13-33.92L248.13-33.92Q250.37-33.92 252-32.70L252-32.70L252-32.70Q253.63-31.49 253.63-29.22L253.63-29.22L253.63-29.22Q253.63-26.94 252.96-24.51L252.96-24.51L252.96-24.51Q252.29-22.08 251.20-19.58L251.20-19.58L251.20-19.58Q249.09-14.59 246.14-10.69L246.14-10.69ZM282.43 1.28L282.43 1.28L282.43 1.28Q274.69 1.28 274.69-4.74L274.69-4.74L274.69-4.74Q274.75-6.40 275.26-9.22L275.26-9.22L276.42-15.10L276.42-15.10Q278.14-23.42 278.14-25.28L278.14-25.28L278.14-25.28Q278.14-28.99 275.97-28.99L275.97-28.99L275.97-28.99Q272.32-28.99 270.40-19.46L270.40-19.46L266.62 0L253.76 1.28L260.42-32.70L270.91-33.92L269.89-27.65L269.89-27.65Q272.90-33.92 282.11-33.92L282.11-33.92L282.11-33.92Q286.59-33.92 288.48-32.03L288.48-32.03L288.48-32.03Q290.37-30.14 290.37-25.92L290.37-25.92L290.37-25.92Q290.37-21.95 288.32-12.67L288.32-12.67L288.32-12.67Q287.36-8.51 287.36-6.94L287.36-6.94L287.36-6.94Q287.36-5.38 288.22-4.48L288.22-4.48L288.22-4.48Q289.09-3.58 290.37-3.46L290.37-3.46L290.37-3.46Q289.73-1.28 287.52 0L287.52 0L287.52 0Q285.31 1.28 282.43 1.28Z" fill="#ccc"></path></g></g><style>text {
  font-size: 64px;
  font-family: Arial Black;
  dominant-baseline: central;
  text-anchor: middle;
}</style></svg>